<?xml version="1.0" encoding="utf-8"?>
<!-- Generator: Adobe Illustrator 22.1.0, SVG Export Plug-In . SVG Version: 6.00 Build 0)  -->
<svg version="1.1" id="Layer_1" xmlns="http://www.w3.org/2000/svg" xmlns:xlink="http://www.w3.org/1999/xlink" x="0px" y="0px"
	 viewBox="0 0 1920 1994" style="enable-background:new 0 0 1920 1994;" xml:space="preserve">
<style type="text/css">
	.st0{fill:#FEFEFE;}
	.st1{fill:#DBECFE;}
</style>
<g>
	<g>
		<path class="st0" d="M1918,1995c-637.5,0-1275,0-1912.5,0.1c-3.7,0-4.6-0.8-4.6-4.6C1,1870.3,1,1750.2,1,1630
			c2.3,0.3,4.6-1,6.9,0.7c1.2,0.9,2.9,0.3,3.1-1.7c1.7,0,3.3,0,5,0.1c0.4,2.7,2,4.1,4.6,3.9c2.5-0.2,4.9-0.8,5.4-3.9
			c1.3,0,2.7,0,4,0c-0.3,2.6,1.4,3.7,3.5,3.8c2.6,0.1,5-0.7,5.5-3.8c1.3,0,2.7,0,4,0c0.3,2.7,2.4,1.8,4,2c1.1,0,2.3,0.2,3-1
			c1.3,0,2.7,0,4,0c1.8-0.4,4.3,1.2,5-2c2.7,0.8,4.6-1.7,7-2c2.3,1,4.1,0.6,5-2c1.5,0.2,2.8-0.3,4-1c1.5,0,2.9,0,3-2
			c2.4,0.4,4.2-0.7,6-2c1.5,0,2.9,0,3-2c4.8-3.1,10.2-5.4,14-10c2-0.1,2-1.5,2-3c4.3-0.5,6.5-3.3,8-7c2.5-2,5.7-3,7.5-5.8
			c6.3-9.5,12.7-18.8,17-29.6c6.8-17,11.4-34.4,13.7-52.6c0.5-4.4-0.8-9,1.6-13.4c1-1.7,0.2-4.4-2.8-4.7c0-2,0-4,0-6
			c3.8,0.4,4.9-2.7,4.4-5c-0.6-2.8,1.2-7.7-4.4-8c0-5,0-10,0-15c3.5-2,5.3-7.8,4.2-11.8c-0.7-2.3-1.9-3.4-4.2-3.2c0-2.7,0-5.3,0-8
			c3.8-0.4,2.9-3.4,3-5.7c0.1-2.7-1.6-3.4-3.9-3.3c0-1,0-2,0-3c4.3-0.9,3.1-4,2.6-6.7c-2.6-13.6-5.4-27.2-6.8-41.1
			c-0.3-3-1.2-5.9-0.9-9c0.3-2.6-1.6-3.4-3.9-3.3c0-0.7,0-1.3,0-2c2.7-0.2,3.1-2,3-4.2c0-2.7-1.2-4.4-4-4.8c0-1.3,0-2.7,0-4
			c3.8-0.4,2.9-3.4,3-5.7c0.1-2.7-1.6-3.4-3.9-3.3c0-3.7,0-7.3-0.1-11c2.1-0.2,2.6-1.9,2.9-3.5c1.6-6.9,1.5-13.9,0.8-20.8
			c-0.3-3.1,0.6-7.9-4.7-8.7c0.9-2.9,1.1-6,1-9c2.8-0.4,3.9-2.1,4-4.8c0-2.2-0.3-4-3-4.2c0-1.3,0-2.7,0-4c2,0.1,4.2-0.4,3.8-2.8
			c-0.5-3.7,0.7-7,1.1-10.5c1.6-14.7,4.7-29.1,8.4-43.3c3-11.5,7.9-22.5,11.6-33.7c2.9-8.6,7.7-15.7,12.1-23
			c6.4-10.5,13.5-20.7,22.6-29.3c5.8-5.5,10.9-12,17.6-16.4c12.1-7.9,22.9-18.3,37.6-22c6.9-1.7,12.9-5.7,20-7.1
			c9.6-1.8,19-4.5,28.6-6.2c11.5-2,23.4-1.6,34.4-6c0.5-0.2,1.3,0.1,1.8,0.4c3.8,2.1,5.9,0.3,7.3-3.2c0.3,0,0.7,0,1,0
			c0.2,2.6,1.9,3,4.1,3c2.8,0.1,3.5-1.8,3.9-4c0.7,0,1.3,0,2,0c0.2,2.3,1.6,3.1,3.7,3c2.5-0.1,3.9-1.5,4.3-4c0.7,0,1.3,0,2,0
			c0.2,2.6,1.9,3,4.1,3c2.8,0.1,3.5-1.8,3.9-4c1,0,2,0,3,0c0.2,2.7,2,3.1,4.2,3c2.7,0,4.4-1.2,4.8-4c1,0,2,0,3,0
			c0.3,3.4,2.8,2.9,5.1,3c2.8,0.1,3.6-1.7,3.9-4c1.7,0,3.3,0,5,0c0.4,3.8,3.4,2.9,5.7,3c2.7,0.1,3.4-1.6,3.3-3.9c2.3,0,4.7,0,7,0
			c0.7,4.4,4.2,2.8,6.7,3c2.6,0.2,3.4-1.6,3.3-3.9c3.7-0.1,7.4,0.3,11-1c-0.4,5.2,4.1,3.9,6.6,4.5c3.2,0.7,5.6-1.1,6.4-4.5
			c9.7,0.6,19.3-1.4,29-1c0.1,1.2,0.6,2.5,1.8,2.6c4.1,0.5,8.2,0.5,12.3,0c1.3-0.2,1.7-1.4,1.8-2.6c9-0.4,18,1.6,27,1
			c0.5,3.2,2.9,4.9,5.5,4.6c2.3-0.2,6.1,0.5,6.5-3.7c2.7,0,5.3,0,8,0c-0.1,2.3,0.6,4,3.3,3.9c2.4,0,5.3,0.8,5.7-3c1.7,0,3.3,0,5,0
			c-0.1,2.3,0.6,3.9,3.3,4c2.3,0,4.5,0.1,4.7-3c1,0,2,0,3,0c-0.1,2.3,0.6,4.2,3.3,3.9c6.1-0.6,11.9,1.2,17.9,1.9
			c20.2,2.6,40.2,5.9,59.7,12c17.2,5.4,34.8,9.5,50.2,19.9c9.1,6.1,18.8,11.3,26.1,19.8c2.1,2.4,4.6,3.7,7.9,3.4
			c3.9,3.4,7.7,6.9,11.7,10.1c20.3,16.3,42.3,30,66.4,39.9c29.8,12.3,60.7,17.6,92.9,14.1c21.9-2.4,42.5-8.8,62.1-18.7
			c9.1-4.6,17.6-10.1,26.9-14.2c22.2-9.6,44.7-18.6,67.5-27.1c33.8-12.5,67.9-24,102.8-33.2c21-5.5,42.1-10.5,63.5-13.7
			c14.1-2.1,28.2-4,42.5-4.2c9.3-0.1,18.6-0.2,27.9,0.8c9.9,1.1,19.6,2.9,29,6.2c9.2,3.2,16.7,9.1,24.3,15.3
			c11.3,9.2,23.5,17.2,35.5,25.5c4.8,3.3,9.4,6.9,16,7.4c11.5,0.9,22.9,3.4,34.4,4.5c5.5,0.5,10.9,3,16.8-1
			c14.7-10.1,31.8-14.2,49.3-15.5c17.3-1.2,34,2.1,49.9,9.4c12.5,5.7,23.1,14.2,34,22.4c15.5,11.7,30.7,23.7,44.6,37.4
			c16.3,16,32.4,32,46.9,49.7c11.3,13.9,22.3,28.1,32.2,42.9c12.9,19.3,24.4,39.5,34.5,60.5c11.7,24.3,21,49.5,28.2,75.5
			c8.2,29.5,12.9,59.6,14.3,90c1.4,29-0.1,58-4.7,86.8c-3.9,25.1-9.3,49.8-17,74c-6.8,21.6-14.9,42.6-23.6,63.5
			c-7.4,17.7-10.2,36.8-11.4,55.8c-1.2,18.4-0.8,36.9,3,55.1c8.7,42.5,30.6,76.7,65.4,102.6c26.1,19.4,55.6,31.6,86.7,40.3
			C1896.8,1989.9,1907.4,1992.3,1918,1995z"/>
		<path class="st1" d="M43,1629c-1.3,0-2.7,0-4,0c-3,0-6,0-9,0c-1.3,0-2.7,0-4,0c-3.3,0-6.7,0-10,0c-1.7,0-3.3,0-5-0.1
			c-3.2-1.4-6.6-1.6-10-2c0-416.7,0-833.3,0-1250c1.4,0.7,2.2,1.9,3.1,3.1c6.7,9.2,14.7,17.2,23.9,23.8c23.5,16.8,49.7,23,78.5,21.3
			c17.7-1.1,34.8-4.6,51.6-9.8c23.2-7.1,44.3-18.7,65.3-30.7c31.5-18,63.4-35.2,96-51.1c26.5-12.9,53.6-24,81.8-32.8
			c28.9-9,58.1-13,88.3-10c23.3,2.3,45.1,9.3,66.2,19c28.7,13.2,53.6,31.9,76.7,53.1c15.8,14.5,30.4,30.3,43.9,47
			c15.9,19.6,30.6,40,44.4,61.2c17.1,26.4,32.9,53.5,47.2,81.5c9.3,18.1,18.2,36.3,26.8,54.7c6.6,14,12.4,28.3,18.5,42.5
			c9,21.1,17.4,42.4,25.2,64c7.2,19.8,14.2,39.7,20.6,59.9c8.4,26.4,15.6,53.2,29.3,77.7c8.1,14.4,17.1,28.1,28.2,40.3
			c16.2,17.8,35.1,32,57.5,41.2c19,7.9,38.9,12.2,59.4,13c9.3,0.4,18.6,0.1,27.9-0.7c13.2-1.1,26.3-3,39.2-5.9
			c34.1-7.7,66.3-20.3,97.2-36.6c6.7-3.6,13.5-7.2,18.6-13.2c17.5-20.9,36-40.8,56.1-59.4c13.1-12.1,26.2-24,39.7-35.6
			c15.4-13.4,31.5-25.9,47.8-38.2c24.7-18.5,50.3-35.8,76.4-52.4c31.7-20.1,64.3-38.8,97.6-56.2c31.6-16.4,63.6-32,96.5-45.8
			c11.2-4.7,22.1-10.1,34-12.8c9.7-2.2,19.4-4.6,28.6-8.3c27.1-10.8,47.9-28.9,61.9-54.4c14.1-25.7,19.9-53.6,20.3-82.8
			c0.1-10.3-0.7-20.6-0.8-30.9c-0.2-19.6-0.1-39.2,0.5-58.9c1.2-41.4-0.4-82.9,1.2-124.4c1-26.2-1-52.5,2-78.8
			c2.2-19.6,6.1-38.6,13.1-57c10.1-26.9,26-49.8,49.6-66.5c24-16.9,51-25.2,80.4-25.4c0,662.8,0,1325.7,0,1988.5
			c0,1.9,1.5,5.3-3,4.5c-10.6-2.7-21.2-5.1-31.7-8c-31.1-8.6-60.7-20.8-86.7-40.3c-34.8-25.9-56.7-60.1-65.4-102.6
			c-3.7-18.2-4.1-36.7-3-55.1c1.2-19,4-38.1,11.4-55.8c8.7-20.9,16.7-41.9,23.6-63.5c7.7-24.2,13-48.9,17-74
			c4.5-28.8,6-57.8,4.7-86.8c-1.4-30.4-6.1-60.5-14.3-90c-7.3-26-16.5-51.2-28.2-75.5c-10.1-21-21.5-41.2-34.5-60.5
			c-9.9-14.9-20.9-29.1-32.2-42.9c-14.5-17.7-30.6-33.7-46.9-49.7c-13.9-13.6-29.1-25.6-44.6-37.4c-10.9-8.2-21.4-16.7-34-22.4
			c-15.9-7.2-32.6-10.6-49.9-9.4c-17.5,1.3-34.5,5.4-49.3,15.5c-5.9,4-11.3,1.5-16.8,1c-11.5-1-22.9-3.6-34.4-4.5
			c-6.6-0.5-11.1-4-16-7.4c-12-8.3-24.3-16.3-35.5-25.5c-7.6-6.2-15-12.1-24.3-15.3c-9.4-3.3-19.1-5.1-29-6.2
			c-9.3-1-18.6-0.9-27.9-0.8c-14.3,0.2-28.4,2.1-42.5,4.2c-21.5,3.2-42.6,8.2-63.5,13.7c-34.9,9.2-69,20.7-102.8,33.2
			c-22.7,8.4-45.2,17.4-67.5,27.1c-9.3,4-17.9,9.6-26.9,14.2c-19.6,9.8-40.2,16.3-62.1,18.7c-32.3,3.5-63.1-1.8-92.9-14.1
			c-24.1-9.9-46.1-23.6-66.4-39.9c-4-3.2-7.8-6.7-11.7-10.1c-3.8-5.8-9-10.2-14.2-14.4c-15.2-12.2-32.6-20.3-50.8-26.7
			c-18.6-6.6-37.8-11.1-57.2-14.5c-14.1-2.5-28.3-4.9-42.8-5.3c-1,0-2,0-3,0c-2.5-1.9-5.3-0.6-8-1c-1.7,0-3.3,0-5,0
			c-2.8-1.9-6-0.6-9-1c-2.7,0-5.3,0-8,0c-3.9-2-8-0.5-12-0.9c-9,0.7-18-1.3-27-1c-5.3,0-10.7,0-16,0c-9.7-0.4-19.3,1.6-29,1
			c-4.3,0-8.7,0-13,0c-3.6,1.2-7.3,0.9-11,1c-3.3,0.4-6.8-1-10,1c-2.3,0-4.7,0-7,0c-3,0.4-6.2-1-9,1c-1.7,0-3.3,0-5,0
			c-3,0.4-6.2-1-9,1c-1,0-2,0-3,0c-3,0.4-6.2-1-9,1c-1,0-2,0-3,0c-2.7,0.4-5.5-1-8,1c-0.7,0-1.3,0-2,0c-2.7,0.4-5.5-1-8,1
			c-0.7,0-1.3,0-2,0c-2.7,0.4-5.5-1-8,1c-0.3,0-0.7,0-1,0c-8.8,0.1-17.4,2-26.1,2.9c-19.7,2-39,5.6-57.7,12.2
			c-42.3,14.8-73.4,42.4-94.5,81.7c-10.8,20.2-18,41.7-22.7,64.1c-2.9,13.9-5.4,27.9-6,42.2c0,1.3,0,2.7,0,4c-1.9,2.8-0.6,6-1,9
			c0.1,3-0.1,6.1-1,9c0,9.1-0.1,18.2,0,27.3c0,1.9-0.7,4,0.9,5.7c0,3.7,0,7.3,0.1,11c0.4,3-1,6.2,1,9c0,1.3,0,2.7,0,4
			c0.4,3-1,6.2,1,9c0,0.7,0,1.3,0,2c0.3,12.1,2.7,23.9,4.5,35.8c1.2,8.1,3,16.1,4.5,24.2c0,1,0,2,0,3c0.4,3-1,6.2,1,9
			c0,2.7,0,5.3,0,8c0,5,0,10,0,15c0,5,0,10,0,15c0,4.3,0,8.7,0,13c0,2,0,4,0,6c-1.3,9.3-2.4,18.6-4,27.8
			c-4.4,24.6-11.9,47.9-27.2,68.2c-1.9,2.6-5.2,4.3-5.8,7.9c-3,2.7-6,5.4-9,8c-0.3,0.3-0.7,0.6-1,1c-7.2,6.2-15.4,11-24,15
			c-0.7,0.3-1.3,0.7-2,1c-8.3,4-17.3,5.3-26,8c-0.3,0-0.7,0-1,0C46.3,1628.2,44.4,1627.4,43,1629z"/>
		<path class="st0" d="M1921,2c-29.4,0.2-56.4,8.4-80.4,25.4c-23.7,16.7-39.5,39.6-49.6,66.5c-6.9,18.4-10.9,37.5-13.1,57
			c-3,26.2-1,52.5-2,78.8c-1.5,41.5,0,82.9-1.2,124.4c-0.6,19.6-0.7,39.3-0.5,58.9c0.1,10.3,0.9,20.6,0.8,30.9
			c-0.4,29.1-6.2,57.1-20.3,82.8c-14,25.5-34.8,43.6-61.9,54.4c-9.3,3.7-18.9,6.1-28.6,8.3c-11.9,2.6-22.8,8.1-34,12.8
			c-32.9,13.8-64.9,29.3-96.5,45.8c-33.3,17.3-65.9,36-97.6,56.2c-26.1,16.6-51.7,33.8-76.4,52.4c-16.3,12.2-32.4,24.8-47.8,38.2
			c-13.4,11.6-26.6,23.5-39.7,35.6c-20.1,18.5-38.6,38.5-56.1,59.4c-5.1,6.1-11.8,9.7-18.6,13.2c-30.9,16.3-63.1,28.9-97.2,36.6
			c-12.9,2.9-26,4.8-39.2,5.9c-9.3,0.8-18.6,1-27.9,0.7c-20.5-0.8-40.4-5.1-59.4-13c-22.4-9.3-41.3-23.4-57.5-41.2
			c-11.1-12.2-20.1-25.9-28.2-40.3c-13.7-24.4-20.9-51.2-29.3-77.7c-6.4-20.1-13.3-40-20.6-59.9c-7.9-21.5-16.2-42.9-25.2-64
			c-6.1-14.2-11.9-28.5-18.5-42.5c-8.6-18.4-17.5-36.6-26.8-54.7c-14.3-28-30.1-55.1-47.2-81.5c-13.7-21.2-28.4-41.6-44.4-61.2
			c-13.5-16.6-28.1-32.5-43.9-47c-23.1-21.2-48-39.9-76.7-53.1c-21.1-9.7-42.9-16.7-66.2-19c-30.2-3-59.4,1-88.3,10
			c-28.2,8.8-55.3,19.9-81.8,32.8c-32.6,15.9-64.5,33.1-96,51.1c-20.9,12-42.1,23.6-65.3,30.7c-16.8,5.2-33.9,8.7-51.6,9.8
			c-28.7,1.7-55-4.5-78.5-21.3c-9.2-6.6-17.2-14.6-23.9-23.8c-0.9-1.2-1.7-2.5-3.1-3.1C1,253,1,129.1,0.9,5.1c0-3.2,0.4-4.2,4-4.2
			C642.3,1,1279.6,1,1917,1.1C1918.3,1.1,1920.1-0.1,1921,2z"/>
		<path class="st0" d="M1,1627c3.4,0.3,6.8,0.5,10,2c-0.2,2.1-1.9,2.6-3.1,1.7c-2.3-1.7-4.6-0.4-6.9-0.7C1,1629,1,1628,1,1627z"/>
		<path class="st0" d="M137,1272c0.6-14.3,3.1-28.3,6-42.2c4.7-22.4,11.8-43.9,22.7-64.1c21.1-39.2,52.3-66.9,94.5-81.7
			c18.7-6.5,38-10.2,57.7-12.2c8.7-0.9,17.3-2.8,26.1-2.9c-1.3,3.5-3.4,5.3-7.3,3.2c-0.5-0.3-1.3-0.6-1.8-0.4c-11,4.4-22.9,4-34.4,6
			c-9.6,1.7-19,4.4-28.6,6.2c-7.1,1.3-13.2,5.4-20,7.1c-14.7,3.7-25.4,14.1-37.6,22c-6.7,4.4-11.8,10.9-17.6,16.4
			c-9.1,8.6-16.3,18.8-22.6,29.3c-4.4,7.3-9.3,14.4-12.1,23c-3.8,11.2-8.6,22.2-11.6,33.7c-3.8,14.2-6.8,28.6-8.4,43.3
			c-0.4,3.5-1.6,6.8-1.1,10.5C141.2,1271.6,139,1272.1,137,1272z"/>
		<path class="st0" d="M569,1064c14.4,0.4,28.6,2.8,42.8,5.3c19.4,3.4,38.5,8,57.2,14.5c18.3,6.4,35.7,14.5,50.8,26.7
			c5.2,4.2,10.5,8.6,14.2,14.4c-3.3,0.3-5.9-1-7.9-3.4c-7.2-8.5-17-13.6-26.1-19.8c-15.4-10.4-33-14.6-50.2-19.9
			c-19.4-6.1-39.5-9.4-59.7-12c-6-0.8-11.8-2.5-17.9-1.9C569.6,1068.2,568.9,1066.3,569,1064z"/>
		<path class="st0" d="M111,1595c0.6-3.6,3.8-5.3,5.8-7.9c15.3-20.3,22.8-43.7,27.2-68.2c1.7-9.2,2.7-18.5,4-27.8
			c3.1,0.3,3.8,2.9,2.8,4.7c-2.4,4.3-1,9-1.6,13.4c-2.3,18.2-6.9,35.5-13.7,52.6c-4.3,10.8-10.8,20.1-17,29.6
			c-1.9,2.9-5.1,3.8-7.5,5.8C111,1596.3,111,1595.6,111,1595z"/>
		<path class="st0" d="M147,1422c-1.5-8.1-3.3-16.1-4.5-24.2c-1.8-11.9-4.2-23.7-4.5-35.8c2.3-0.1,4.2,0.6,3.9,3.3
			c-0.3,3.1,0.6,6,0.9,9c1.4,13.9,4.1,27.5,6.8,41.1C150.1,1418,151.3,1421.1,147,1422z"/>
		<path class="st0" d="M136,1327c-1.7-1.7-0.9-3.8-0.9-5.7c-0.1-9.1,0-18.2,0-27.3c5.3,0.9,4.4,5.7,4.7,8.7
			c0.7,6.9,0.8,13.9-0.8,20.8C138.5,1325.1,138.1,1326.8,136,1327z"/>
		<path class="st0" d="M77,1619c8.6-4,16.8-8.8,24-15c0,1,0,2,0,3c-3.8,4.6-9.2,6.9-14,10c-1.4,0-2.4,0.7-3,2c-1.8,1.3-3.6,2.4-6,2
			C77.2,1620.6,77,1619.8,77,1619z"/>
		<path class="st0" d="M49,1628c8.7-2.6,17.7-4,26-8c0,1,0,2,0,3c-1.2,0.7-2.5,1.2-4,1c-2-0.1-3.7,0.4-5,2c-2.4,0.3-4.3,2.8-7,2
			c-1.4,1.4-4.4-1.4-5,2c-1.3,0-2.7,0-4,0C49.7,1629.3,49.3,1628.7,49,1628z"/>
		<path class="st0" d="M148.1,1457c0-5,0-10,0-15c2.4-0.2,3.5,0.9,4.2,3.2C153.4,1449.2,151.5,1455,148.1,1457z"/>
		<path class="st0" d="M439,1061.1c4.3,0,8.7,0,13,0c-0.8,3.4-3.2,5.3-6.4,4.5C443.1,1065,438.6,1066.3,439,1061.1z"/>
		<path class="st0" d="M148,1485c0-4.3,0-8.7,0-13c5.6,0.3,3.8,5.1,4.4,8C153,1482.3,151.9,1485.4,148,1485z"/>
		<path class="st0" d="M524,1061c4,0.4,8.1-1,12,0.9c-0.4,4.2-4.2,3.4-6.5,3.7C526.9,1065.9,524.5,1064.2,524,1061z"/>
		<path class="st0" d="M481,1060.1c5.3,0,10.7,0,16,0c-0.1,1.2-0.6,2.5-1.8,2.6c-4.1,0.5-8.2,0.5-12.3,0
			C481.6,1062.5,481.1,1061.3,481,1060.1z"/>
		<path class="st0" d="M418,1063c3.2-2,6.7-0.6,10-1c0.1,2.3-0.6,4.1-3.3,3.9C422.2,1065.8,418.7,1067.4,418,1063z"/>
		<path class="st0" d="M544,1062c3,0.4,6.2-1,9,1c-0.4,3.8-3.4,2.9-5.7,3C544.6,1066,543.9,1064.3,544,1062z"/>
		<path class="st0" d="M402,1064c2.8-1.9,6-0.6,9-1c0.1,2.3-0.6,4-3.3,3.9C405.4,1066.9,402.4,1067.8,402,1064z"/>
		<path class="st0" d="M148,1434c-1.9-2.8-0.6-6-1-9c2.3-0.1,4,0.6,3.9,3.3C150.9,1430.6,151.8,1433.6,148,1434z"/>
		<path class="st0" d="M137,1347c-1.9-2.8-0.6-6-1-9c2.3-0.1,4,0.6,3.9,3.3C139.9,1343.6,140.8,1346.6,137,1347z"/>
		<path class="st0" d="M388,1065c2.8-1.9,6-0.6,9-1c-0.4,2.3-1.1,4.1-3.9,4C390.8,1067.9,388.3,1068.3,388,1065z"/>
		<path class="st0" d="M16,1629c3.3,0,6.7,0,10,0c-0.5,3.1-2.9,3.7-5.4,3.9C18,1633.1,16.4,1631.7,16,1629z"/>
		<path class="st0" d="M136,1285c0.4-3-1-6.2,1-9c2.7,0.2,3.1,2,3,4.2C140,1282.9,138.8,1284.6,136,1285z"/>
		<path class="st0" d="M138,1360c-1.9-2.8-0.6-6-1-9c2.8,0.4,4,2.1,4,4.8C141,1358,140.7,1359.8,138,1360z"/>
		<path class="st0" d="M376,1066c2.8-1.9,6-0.6,9-1c-0.4,2.8-2.1,4-4.8,4C378,1069,376.2,1068.7,376,1066z"/>
		<path class="st0" d="M558,1063c2.7,0.4,5.5-1,8,1c-0.3,3.1-2.5,3-4.7,3C558.6,1066.9,557.9,1065.3,558,1063z"/>
		<path class="st0" d="M111,1595c0,0.7,0,1.4,0,2c-1.5,3.7-3.7,6.5-8,7c-0.3-0.3-0.7-0.7-1-1C105,1600.3,108,1597.6,111,1595z"/>
		<path class="st0" d="M30,1629.1c3,0,6,0,9,0c-0.5,3.2-2.9,3.9-5.5,3.8C31.4,1632.8,29.7,1631.7,30,1629.1z"/>
		<path class="st0" d="M345,1069c2.5-1.9,5.3-0.6,8-1c-0.4,2.2-1,4.1-3.9,4C346.9,1072,345.2,1071.6,345,1069z"/>
		<path class="st0" d="M365,1067c2.5-1.9,5.3-0.6,8-1c-0.4,2.2-1.1,4.1-3.9,4C366.9,1070,365.2,1069.6,365,1067z"/>
		<path class="st0" d="M355,1068c2.5-1.9,5.3-0.6,8-1c-0.3,2.5-1.8,3.8-4.3,4C356.6,1071.1,355.2,1070.3,355,1068z"/>
		<path class="st0" d="M43,1629c1.4-1.6,3.3-0.8,5-1c-0.3,1-0.7,2-1,3C45.4,1630.8,43.3,1631.7,43,1629z"/>
		<path class="st0" d="M66,1626c1.3-1.6,3-2.1,5-2C70.1,1626.6,68.3,1627,66,1626z"/>
		<path class="st0" d="M75,1623c0-1,0-2,0-3c0.7-0.3,1.3-0.7,2-1c0,0.8,0.2,1.6,1,2C77.9,1623,76.5,1623,75,1623z"/>
		<path class="st0" d="M54,1630c0.6-3.4,3.6-0.6,5-2C58.3,1631.2,55.8,1629.6,54,1630z"/>
		<path class="st0" d="M102,1603c0.3,0.3,0.7,0.7,1,1c0,1.5,0,2.9-2,3c0-1,0-2,0-3C101.3,1603.7,101.7,1603.3,102,1603z"/>
		<path class="st0" d="M47,1631c0.3-1,0.7-2,1-3c0.3,0,0.7,0,1,0c0.3,0.7,0.7,1.3,1,2C49.3,1631.2,48.1,1631,47,1631z"/>
		<path class="st0" d="M84,1619c0.6-1.3,1.6-2,3-2C86.9,1619,85.5,1619,84,1619z"/>
	</g>
</g>
</svg>
