<svg xmlns="http://www.w3.org/2000/svg" xmlns:xlink="http://www.w3.org/1999/xlink" version="1.1" id="Layer_1" x="0px" y="0px" viewBox="0 0 512 512" style="enable-background:new 0 0 512 512;" xml:space="preserve" class="">
<style type="text/css">
	.st0{fill:#7FC8FE;}
	.st1{fill:#81BFFE;}
	.st2{fill:#988DFE;}
	.st3{fill:#9491FE;}
	.st4{fill:#9C78FE;}
	.st5{fill:#8BA5FE;}
	.st6{fill:#8CA3FE;}
	.st7{fill:#9B7FFE;}
	.st8{fill:#9889FE;}
	.st9{fill:#87B1FE;}
	.st10{fill:#89ABFE;}
	.st11{fill:#9199FE;}
	.st12{fill:#85B7FE;}
	.st13{fill:#7EC5FE;}
</style>
<g>
	<path class="st0" d="M90.2,62.5c-1-23,14.7-43.2,37.2-48c1-0.2,2-0.1,2.7-1c43.7,0,87.3,0,131,0c5.1,2.3,10.7,3.2,15.5,6.3   c15.8,9.9,24.4,23.7,23.6,42.8c-4.7,0-9.4,0-14.1,0c-0.3-1.8-0.6-3.6-0.8-5.4c-1.7-16.2-14.9-28.6-31.1-28.7   c-39.3-0.2-78.6,0-117.8-0.1c-6.2,0-11.8,1.9-16.9,5.3c-10.3,6.8-14.6,16.8-14.8,28.9C99.8,62.5,95,62.5,90.2,62.5z"/>
	<path class="st1" d="M90.2,62.5c4.8,0,9.6,0,14.5,0c0.1,7.8,0.4,15.6,0.2,23.3c-0.1,4.8,3.1,3.8,5.7,3.7c2.6,0,5.9,1.2,5.7-3.7   c-0.2-4.8,0.1-9.6,0.2-14.4c4.8,0,9.7,0,14.5,0c0,4.7,0.2,9.3,0.1,14c-0.1,2.9,0.6,4.1,3.8,4.1c40.2-0.1,80.3-0.1,120.5,0   c3.2,0,3.9-1.3,3.9-4.1c-0.1-4.7,0.1-9.3,0.2-14c4.8,0,9.7,0,14.5,0c0.1,3.5,0.1,7,0.2,10.4c0.2,8.3-2,7.5,8.2,7.7   c2.8,0,3.8-0.9,3.7-3.7c-0.1-7.8,0-15.6,0.1-23.4c4.7,0,9.4,0,14.1,0c0,7.5,0.3,15,0,22.4c-0.1,3.9,1.2,4.7,4.9,4.7   c23.6-0.1,47.2-0.1,70.9-0.1c8.4,0,11.1,2.6,11.1,11c0,5.3-0.2,10.6-0.2,15.9c-4.8,0-9.7,0-14.5,0c0-0.2,0-0.3-0.1-0.5   c-0.4-11.6-0.4-11.6-12.4-11.6c-111.3,0-222.5,0-333.8,0c-8.9,0-7.7-1.1-7.8,7.6c0,1.5-0.1,3-0.1,4.5c-4.7,0-9.4,0-14.1,0   c0-6-0.1-12-0.1-17.9c0-6.3,2.7-9,9.2-9c22.8,0,45.5,0,68.3,0c8.7,0,8.7,0,8.7-8.6C90.1,74.8,90.2,68.6,90.2,62.5z"/>
	<path class="st2" d="M319.3,342.6c-14.1,8.3-26.2,19-37.1,31.1c-4.9-4-10.6-1.7-15.9-2.3c1.8-2.7,3.7-5.4,5.7-8.4   c-2-1.1-4-0.7-5.9-0.7c-53.7,0-107.3,0-161,0c-1.7,0-3.4,0.2-5-0.1c-4.1-0.6-6.8-3-6.9-7.2c-0.1-4.3,2.6-6.7,6.7-7.4   c1.6-0.3,3.3-0.1,5-0.1c57.8,0,115.6-0.1,173.5,0.1c6,0,11.1-0.9,15.3-5.3c1-1.1,2.1-2.1,3.8-2.1   C304.8,341.2,312.4,338.9,319.3,342.6z"/>
	<path class="st3" d="M319.3,342.6c-6.9-3.8-14.5-1.4-21.8-2.3c9.6-9.1,21.5-14,33.5-18.9c3.1-1.2,6.2-2.2,9.8-3.4   c-3.8-3.8-8.8-6.1-11.8-10.4c1-2.3,3-2.2,5-2.2c4.4-0.1,8.9,0.6,13.2-1c5.3,2.8,10.5,5.7,16.4,7c15.1,3.3,29.3,1,42.5-7.1   c0.3,2.4,2.1,2.1,3.7,2.1c3.1,0,6.3,0,9.4,0c1.5,0,3.5-0.6,3.9,1.8c-3.5,3.1-7.1,6.3-11,9.7c17,5.6,32.8,12.6,46.2,24.1   c-1.4,2.1-3.6,1.2-5.5,1.4c-5.1,0.5-10.3-1.1-15.2,1.2c-6.8-3.1-13.5-6.3-20.4-9.2c-6.5-2.8-6.6-2.6-10,3.8   c-1.1,2.1-2.2,4.1-3.3,6.1c-5.1-1.8-10.4-0.7-15.7-1c2-4,3.8-8.1,6-12c1.3-2.4,0.4-3.4-1.8-3.7c-10.7-1.6-21.4-1.9-32.1,0.1   c-2.2,0.4-3.2,1.1-1.8,3.5c2,3.6,3.7,7.4,5.6,11.1c-2.9,2-6.1,0.7-9.2,0.9c-2,0.2-4,0-5,2.3c-2.6-3-4-6.8-5.7-10.3   c-1.3-2.6-2.5-3.2-5.3-2.2C332.1,336.6,325.8,339.9,319.3,342.6z"/>
	<path class="st4" d="M508.1,442.5c0,11.2,0.1,22.3,0.1,33.5c0,6.6-2.3,8.7-9.2,8.7c-39.3,0-78.6,0-117.9,0c-15.5,0-31,0-46.5,0   c-6.2,0-9.5-2.5-9.5-7c0.1-4.6,3.5-7.2,9.5-7.2c51.1,0,102.3-0.1,153.4,0.1c4.9,0,6.3-1.3,6-6.1c-0.4-7.3,0-14.6,0-22   C498.8,442.5,503.4,442.5,508.1,442.5z"/>
	<path class="st5" d="M75.3,240.5c-0.9-3-3.8-2.3-5.8-2.8c-14.7-4.2-27.7-11-38.4-22c0.2-2,1.7-2.2,3.3-2.1c5,0.2,9.9-0.2,14.9-1   c6.4,3.8,12.9,7.6,20.1,9.9c5.9,1.9,5.9,1.9,5.9-4.1c0-3.2-0.1-6.3,0.1-9.5c0.3-4.6,3.1-7.4,7.7-7.4c10.7-0.1,21.3-0.1,32,0   c4.9,0.1,7.2,2.5,7.4,7.5c0.1,4.2,0.3,8.3,0,12.5c-0.3,3.9,1,5.1,5,5.1c17-0.2,34-0.1,51-0.1c5.3,0,8.6,2.8,8.7,7   c0.1,4.2-3.2,7.2-8.3,7.2c-18.6,0-37.3,0-56,0c-4.8,0-9.6-0.1-14.4-0.1c0-3.8-0.1-7.7-0.1-11.5c0-13.9,0-13.8-14-13.5   c-3.1,0.1-4,1-4,4c0.1,7-0.1,14-0.1,21C85,240.5,80.2,240.5,75.3,240.5z"/>
	<path class="st6" d="M309.6,260.5c-0.1-5-0.3-9.9-0.3-14.9c0-3,0.3-5.6-4.2-5.2c-3.5,0.3-6.2-0.1-6.1,5.1   c0.3,13.6-7.2,22.2-20.4,24.7c-12.5,2.3-26.2-8.9-26.5-21.6c-0.2-7.9-0.2-7.9-8-7.9c-12.8,0-25.6,0-38.4,0c-1.9,0-4,0.7-5.6-1   c1.2-2.6,3.5-2.1,5.6-2.1c20.3,0,40.6,0,61,0c0.1,2.8,0.2,5.6,0.3,8.5c0.2,6.1,3.1,9.5,8.4,9.6c5.6,0.1,8.7-3.3,8.9-9.6   c0.1-6.1,0.2-12.3,0.3-18.4c4.9-0.7,10,1.5,14.7-1.2c3.5,0,7-0.2,10.3-1.8c4.8,0,9.6,0,14.5,0c-0.3,3.2,1.1,4.4,4.3,4   c7.7-0.9,15.1-3.1,22.5-5.4c1.4,2.1,3.6,1.2,5.5,1.4c6.1,0.4,12.2-0.9,18.2,1.2c-2.3,2.5-5.2,4-8.1,5.7c-12,6.9-25,10.3-38.6,11.8   c-3.1,0.3-3.8,1.6-3.7,4.4c0.1,4.3,0,8.6-0.1,12.9C319.2,260.5,314.4,260.5,309.6,260.5z"/>
	<path class="st7" d="M407.9,396.5c2.1,8.9,4.1,17.8,6.4,26.6c1,3.9,0,6.8-2.9,9.4c-9.8,8.8-19.5,17.6-29.4,26.4   c-3.9,3.5-7.2,3.5-11.1,0c-9.7-8.6-19.3-17.4-29-26c-3.1-2.8-4.4-5.8-3.2-10.2c2.4-8.6,4.3-17.4,6.4-26.1c4.9,0,9.8,0,14.7,0   c-1.8,7.8-3.4,15.6-5.4,23.3c-0.7,2.8-0.1,4.7,2.1,6.6c5.8,5,11.5,10.1,17.1,15.3c2.2,2.1,3.7,1.9,5.8-0.1   c5.8-5.5,11.7-10.9,17.8-16.1c1.7-1.5,1.8-2.7,1.3-4.8c-1.9-8-3.6-16.1-5.3-24.2C398,396.5,403,396.5,407.9,396.5z"/>
	<path class="st8" d="M359.9,396.5c-4.9,0-9.8,0-14.7,0c2.6-11.3,5-22.6,7.8-33.9c1.1-4.6,1.3-8.7-1.7-12.7   c-0.7-0.9-0.9-2.1-1.3-3.2c1-2.3,3-2.2,5-2.3c3.1-0.3,6.3,1.1,9.2-0.9c1.6,3.3,4,4.6,7.8,4.2c3.6-0.4,7.3-0.3,10.9,0   c2.7,0.2,4.4-0.9,5.4-3.2c5.2,0.3,10.5-0.8,15.7,1c-4.3,6.4-5.4,12.8-3.1,20.5c3,10,4.8,20.3,7.1,30.5c-4.9,0-9.8,0-14.7,0   c-1.8-7.4-3.7-14.7-5.5-22.1c-3-12.1-3-12-15.4-12c-3.2,0-4.6,1-5.3,4.2C364.8,376.6,362.3,386.5,359.9,396.5z"/>
	<path class="st2" d="M18.1,303.5c0,13.1,0.2,26.3,0.1,39.4c0,3.7,1,4.8,4.8,4.8c17-0.2,33.9-0.1,50.9-0.1c3,0,5.6,0.5,7.7,2.8   c2.1,2.2,2.2,5,1.2,7.5c-1.3,3.2-4.2,4.6-7.6,4.6c-12.5,0-25,0-37.4,0c-8.5,0-17,0-25.5,0c-4.6,0-8.1-2.1-8.3-6.7   c-0.7-17.4-1.1-34.8,0.2-52.2C8.7,303.5,13.4,303.5,18.1,303.5z"/>
	<path class="st5" d="M266.6,237.5c-20.3,0-40.6,0-61,0c-2.1,0-4.5-0.5-5.6,2.1c-3.2-2.1-4.3-5-2.9-8.6c1.3-3.7,4.3-4.6,7.9-4.6   c14,0.1,27.9-0.1,41.9,0.1c4.3,0.1,5.5-1.3,5.2-5.4c-0.3-4.1-0.1-8.3,0-12.5c0.1-4.6,2.5-7.2,7.1-7.2c11-0.1,21.9-0.1,32.9,0   c4.6,0.1,6.9,2.8,7,7.4c0.1,5.8,0.1,11.6,0.2,17.4c-4.7,2.7-9.8,0.5-14.7,1.2c-1.1-3.8,1.8-9.2-1.5-11.2c-3.1-1.9-8.1-0.5-12.2-0.7   c-3.1-0.2-4,1.1-4,4C267,225.5,266.7,231.5,266.6,237.5z"/>
	<path class="st4" d="M259.4,428.5c-0.1,12.5-0.1,25-0.3,37.5c-0.1,3.5,1,4.5,4.5,4.5c14.5-0.2,29-0.1,43.5,0   c6.5,0,10.1,5.4,7.3,10.6c-1.4,2.6-3.8,3.6-6.7,3.6c-18.5,0-37,0-55.5,0c-4.7,0-7.9-2.7-7.8-7.2c0.2-16.3-1.2-32.6,0.8-48.9   C249.9,428.5,254.6,428.5,259.4,428.5z"/>
	<path class="st9" d="M408.2,153.3c11.4,5.5,20,13.9,26,25c-1.1,2.6-3.4,2-5.5,2.2c-3,0.3-6.2-1.3-8.8,1.3c-1.5-1.6-3-3.1-4.4-4.8   c-12.7-15.4-38.4-21.7-56.8-14.5c-14.3,5.6-24.3,15.3-30.8,28.9c-5,0-10,0-15.1,0c4.9-16.5,14.8-28.9,30-37c3.3,0.4,6.6,1,9.9,1   c15.5,0.1,31,0.1,46.5,0C402.3,155.4,405.4,155,408.2,153.3z"/>
	<path class="st10" d="M49.2,212.5c-4.9,0.9-9.9,1.3-14.9,1c-1.6-0.1-3.1,0.1-3.3,2.1c-4.8-3.7-8.3-8.7-12.9-14.7   c0,11.5,0,21.5,0,31.5c-4.7,0-9.4,0-14.1,0c0-20.7,0-41.3,0-62c5.4,0,10.8,0,16.3-0.1c4.6,14.2,11.5,26.9,22.9,36.8   C45.2,209,47.2,210.7,49.2,212.5z"/>
	<path class="st6" d="M443.1,213.5c0,16,0,32,0,48c-4.7,0-9.4,0-14,0c0-4.7-0.2-9.3-0.1-14c0.1-3.2-0.7-4.5-4.2-5.2   c-11.2-2.2-20.9-7.3-28.6-15.9c1.2-3.5,4.2-1.3,6.3-1.9c3.5-0.9,7.9,1.9,10.8-2.2c3.7,1.7,7.2,4.1,11.2,5.1c3,0.7,4.8,0.2,4.6-3.5   c-0.2-3.4,0-6.9,0-10.4C433.7,213.5,438.4,213.5,443.1,213.5z"/>
	<path class="st11" d="M4,232.5c4.7,0,9.4,0,14.1,0c0,23.7,0,47.3,0,71c-4.7,0-9.4,0-14.1,0C4,279.8,4,256.1,4,232.5z"/>
	<path class="st12" d="M408.2,153.3c-2.7,1.7-5.9,2.1-9,2.1c-15.5,0.1-31,0.1-46.5,0c-3.3,0-6.6-0.7-9.9-1c7.4-5.4,16.1-7.7,25-8.7   c3.5-0.4,4.4-1.5,4.3-4.8c-0.2-8.1,0-16.2,0.1-24.4c4.8,0,9.7,0,14.5,0c0.1,8.3,0.3,16.6,0.2,24.9c0,3.2,0.7,4.7,4.2,5.3   C397.2,147.7,403,149.8,408.2,153.3z"/>
	<path class="st6" d="M75.3,240.5c4.8,0,9.7,0,14.5,0c0.1,2.3,0.1,4.6,0.2,6.9c0.2,4.5,3.2,7.7,7.6,8.1c4.9,0.4,8.1-2,9.5-6.7   c0.8-2.8,0.6-5.5,0.9-8.3c4.8,0,9.6,0.1,14.4,0.1c-0.7,6.3,0.3,12.9-3.6,18.7c-5.8,8.7-16.4,12.9-26.5,10.1   c-9.9-2.8-17.1-12-17.3-22.4C75.1,244.8,75.2,242.6,75.3,240.5z"/>
	<path class="st7" d="M259.4,428.5c-4.7,0-9.5,0-14.2-0.1c1-16.9,6.6-32.4,14.7-47c1.9-3.5,3.7-7.1,6.5-10   c5.3,0.6,11.1-1.7,15.9,2.3C269.6,389.9,262.6,408.4,259.4,428.5z"/>
	<path class="st7" d="M508.1,442.5c-4.7,0-9.4,0-14.1,0c-0.3-20.3-5.2-39.3-15.3-56.9c5.1-0.8,10.5,1.3,15.4-1.3   c8.3,14,12.6,29.3,13.8,45.4C508.3,433.9,509.6,438.2,508.1,442.5z"/>
	<path class="st8" d="M494.2,384.3c-5,2.6-10.3,0.4-15.4,1.3c-10.6-16.8-25-29.7-41.2-40.8c4.9-2.3,10.2-0.8,15.2-1.2   c1.9-0.2,4.1,0.7,5.5-1.4C473.6,353.3,485.7,367.3,494.2,384.3z"/>
	<path class="st12" d="M20.3,170.4c-5.4,0-10.8,0-16.3,0.1c0-18,0-36,0-54c4.7,0,9.4,0,14.1,0c0,9.4,0.3,18.9,0.1,28.3   C18,153.4,19,161.9,20.3,170.4z"/>
	<path class="st11" d="M429,261.5c4.7,0,9.4,0,14,0c-0.1,18.4-6,34.4-20,46.8c-0.5-2.4-2.4-1.8-3.9-1.8c-3.1-0.1-6.2,0-9.4,0   c-1.6,0-3.4,0.2-3.7-2.1c9.5-7.5,16.9-16.3,20.4-28.2C427.9,271.3,427.8,266.3,429,261.5z"/>
	<path class="st11" d="M309.6,260.5c4.8,0,9.6,0,14.4,0c0.6,3.7,0.2,7.4,1.1,11.2c3.3,13.7,11,24.4,22.1,32.8c-4.3,1.6-8.8,1-13.2,1   c-2,0-4-0.1-5,2.2C315.5,294.8,309.5,278.9,309.6,260.5z"/>
	<path class="st10" d="M443.1,213.5c-4.7,0-9.4,0-14.1,0c-0.6-11.3-3.1-21.9-9.1-31.6c2.6-2.6,5.9-1,8.8-1.3   c2.1-0.2,4.4,0.4,5.5-2.2C441.3,189,443.8,200.8,443.1,213.5z"/>
	<path class="st10" d="M312.9,191.4c5,0,10,0,15.1,0c-4.5,10.6-3.8,21.9-4,33c-4.8,0-9.6,0-14.5,0   C309,213.3,308.5,202.1,312.9,191.4z"/>
	<path class="st13" d="M259.4,71.5c-0.1-1.2-0.2-2.3-0.2-3.5c-0.2-9.9-4.8-14.4-14.8-14.4c-15.6,0-31.3,0-46.9,0   c-15.8,0-31.6,0-47.4,0c-15.5,0-18.4,2.7-19.1,17.9c-4.8,0-9.7,0-14.5,0c-2.2-19.7,12-32.6,29-32.3c32.6,0.6,65.3,0.8,97.9-0.1   c19.1-0.5,32.9,13.2,30.5,32.3C269.1,71.5,264.2,71.5,259.4,71.5z"/>
	<path class="st10" d="M350.9,223.1c7.8-4.1,15.6-8.1,21.8-14.5c3-3.1,5.9-6.2,8.4-9.8c4.1-6.1,10.6-6.1,13.7,0.4   c4.4,9.2,10.5,16.8,18.4,23.1c-2.9,4.1-7.2,1.3-10.8,2.2c-2.1,0.6-5.1-1.7-6.3,1.9c-3.1-2.1-5-5.1-7-8.1c-1.9-2.7-3-2.5-5.1-0.3   c-2.7,3-5.7,5.9-9.5,7.7c-5.9-2.2-12.1-0.8-18.2-1.2C354.4,224.3,352.3,225.2,350.9,223.1z"/>
</g>
</svg>
                                    <span class="count-number"
                                          id="creative">60</span>
                                    <span class="plus">+</span>
                                    <p class="text-capitalize">creative minds</p>
                                </div>
                            </div>
                            <div class="col-lg-3 col-md-3 col-sm-6 col-6">
                                <div class="box">
                                    <svg xmlns="http://www.w3.org/2000/svg" xmlns:xlink="http://www.w3.org/1999/xlink" version="1.1" id="Layer_1" x="0px" y="0px" viewBox="0 0 512 512" style="enable-background:new 0 0 512 512;" xml:space="preserve" class="">
<style type="text/css">
	.st0{fill:#7FC3FE;}
	.st1{fill:#7EC7FE;}
	.st2{fill:#9D7AFE;}
	.st3{fill:#9590FE;}
	.st4{fill:#968AFE;}
	.st5{fill:#86B1FE;}
	.st6{fill:#84B5FE;}
	.st7{fill:#9098FE;}
	.st8{fill:#8CA4FE;}
	.st9{fill:#8F9EFE;}
	.st10{fill:#88AFFE;}
	.st11{fill:#82BDFE;}
	.st12{fill:#9984FE;}
	.st13{fill:#9981FE;}
</style>
<g>
	<path class="st0" d="M434.2,4c4.9,3.2,6.3,7.8,6.2,13.6c-0.3,23.5-0.2,46.9-0.3,70.4c-6.3,0-12.7,0-19,0c-0.2-6.1-0.2-6.2-5.6-3.9   c-5,2.1-10.1,3.1-15.5,3c-20.3-0.1-40.6,0.1-60.9-0.1c-4.9-0.1-6.3,1.7-5.7,6.1c0.7,5.3,0.7,10.6,0.6,15.9c-6.5,0-13.1,0-19.6,0   c-0.1-20.1-0.9-40.3,0-60.4c1-20.8,18.7-39.3,39.5-43.5c1.1-0.2,2.4,0,3.2-1.1C382.9,4,408.5,4,434.2,4z M368.5,67.9   c10,0,20,0.1,30,0c12.3-0.2,20.2-7.4,22-19.4c1-6.8,0.2-13.6,0.6-20.4c0.2-3.5-1.3-4.2-4.4-4.1c-18,0.1-36,0.1-54,0.1   c-7.2,0-13.2,3-18.5,7.5c-10,8.5-10.6,20.1-10.8,31.9c-0.1,3.5,1.2,4.6,4.7,4.6C348.2,67.8,358.3,67.9,368.5,67.9z"/>
	<path class="st1" d="M4.3,63c-1-14.3,0.6-27.9,9.9-39.6C22.1,13.4,32,7,44.5,4.9c0.6-0.1,1.1-0.6,1.7-0.9c46,0,92,0,138,0   c8.7,2.6,17.3,5.4,24.4,11.6c10.9,9.4,16.7,21.3,17.5,35.5c0.3,5,0,10-0.1,14.9c-6.5,0-13,0-19.5,0c-0.1-4.7-0.2-9.3-0.3-14   c-0.3-15.2-13-28-28.2-28.1c-42-0.1-84-0.1-126,0C36.9,24,24.4,36.7,24,52c-0.1,3.7-0.2,7.3-0.3,11C17.2,63,10.7,63,4.3,63z"/>
	<path class="st2" d="M265.9,453c0.1,15.3,0.3,30.6,0.2,46c0,5.7-4.1,9.5-9.8,9.9c-1.3,0.1-2.7,0-4,0c-78.1,0-156.3,0-234.4,0   c-10.8,0-13.8-2.9-13.7-13.5c0-13.8,0.1-27.6,0.2-41.5c22.9,0.5,45.9-1.1,68.8,1c4,6.1-1.7,14.9-9.3,14.3c-8.3-0.6-16.7-0.3-25-0.1   c-4.8,0.1-11-2.2-13.9,1c-2.9,3.1-0.5,9.3-0.9,14c-0.4,3.7,0.9,4.8,4.7,4.8c71-0.1,141.9-0.1,212.9,0c4.2,0,4.9-1.5,4.8-5.2   c-0.2-10,0.1-20,0.1-30C252.9,452,259.4,453.4,265.9,453z"/>
	<path class="st3" d="M252.7,378.2c-3.1-1.7-5.2-4.7-7.7-7.1c-3.2-3.1-3.8-7-2.2-11c1.6-4.1,4.9-6.1,9.4-6.1   c11.2,0,22.3-0.1,33.5,0.1c2.9,0,4.3-1,5.7-3.5c9.5-18,24.8-27.1,44.9-27.2c40.7-0.3,81.3-0.2,122-0.1c28.2,0.1,49.8,22,49.9,50.3   c0,3.2-0.1,6.3-0.2,9.5c-6.5,0-12.9,0-19.4,0c-0.1-2.8-0.5-5.7-0.3-8.5c1.3-16.8-12.3-31.6-31.7-31.5c-39.8,0.2-79.6,0-119.5,0.1   c-15.1,0-25.6,7.7-30.2,22c-2.1,6.5-5.2,8.7-12.2,8.8c-5.2,0-10.3,0.1-15.5,0c-4.3-0.1-1.5,1.8-0.9,3c-3.5,0-7-0.1-10.5,0.1   C262.9,377.3,257.6,375.9,252.7,378.2z"/>
	<path class="st4" d="M26.1,397.8c12.1-15.3,28.2-24.6,46.8-29.7c3.8-1,7.8-1.4,11.8-2.2c1.1-0.2,2.6,0.4,3.2-0.9   c0.6-1.5-0.8-2.4-1.6-3.4c-6-7.1-9.9-15.4-12.3-24.3c-0.5-1.7-0.6-3.6-0.8-5.4c6.4,0,12.9-0.1,19.3-0.1c0.5,1.4,1.1,2.7,1.6,4.1   c7.6,21.6,30.4,33.8,52.4,27.7c16.4-4.6,26.4-15.8,31.2-31.9c6.5,0.1,13,0.1,19.5,0.2c-1.5,11.5-6.3,21.5-13.7,30.4   c-0.6,0.7-1.6,1.5-1.1,2.6c0.7,1.5,2.3,0.9,3.6,1.1c23.5,3.2,43.1,13.6,58.3,32c-6.1,2.2-12.4,0.5-18.5,1c-2.1,0.2-4.4-0.5-5.6,2.1   c-8.8-6.4-18.2-11.4-28.8-14.1c-4.4-1.1-8.4-1.6-11.7,2.2c-5.3-1.4-10.7-1.1-16.1-1.2c-3.2,0-6.4,1.6-9.6,0c0.8-1.3,3.1-3-1-3   c-11.9,0.1-23.9,0.1-35.8,0c-4.2,0-1.6,1.7-1,3c-8.5,0.4-17.2-0.9-25.6,1.2c-3.5-3.9-7.7-3.2-12.2-2.1c-10.3,2.4-19,8.2-28.2,13.1   c-5.7-2.5-11.7-0.4-17.6-1.1C30.4,398.7,27.9,399.9,26.1,397.8z"/>
	<path class="st5" d="M260.1,135c2.4,2.3,5,4.4,7.2,6.9c2.8,3.2,3.9,6.9,2,11.1c-1.9,4.1-5.2,5.9-9.6,5.9c-11,0.1-22,0.1-33,0   c-2.8,0-4.4,0.6-5.8,3.3c-9.6,17.8-24.5,27-44.9,26.9c-40.5,0-80.9-0.5-121.4,0.2C27,189.8,2.8,166.7,4.1,138.5   c0.1-2.2,0.1-4.3,0.1-6.5c6.5,0,13,0,19.4,0c0.1,2.5,0.3,5,0.3,7.5c0.2,17.6,12.5,30.3,30.2,30.3c40.5,0.2,80.9,0.2,121.4,0   c14.9-0.1,25.2-7.9,29.8-22c2.2-6.6,5.1-8.6,12-8.9c6.2-0.3,12.5,1.1,18.7-0.8c2.3-2.1,5-2,7.8-2.2   C249.3,135.6,254.8,137.1,260.1,135z"/>
	<path class="st2" d="M508,452c2.6,23.6-11.3,45.2-29.1,52.6c-6.2,2.6-12.6,4.3-19.3,4.3c-41.6,0-83.3,0.3-124.9-0.1   c-28.6-0.2-48.8-24.3-48.5-48.8c0-4.3,0.1-8.7,0.1-13c6.5,0,12.9,0,19.4,0c0.1,4.7,0.2,9.3,0.3,14c0.5,15.2,13,27.9,28.2,28   c42,0.2,83.9,0.1,125.9,0c12.6,0,23.5-9,27.2-21.1c1.6-5.3,0.5-10.6,1.4-15.8C495.1,452,501.6,452,508,452z"/>
	<path class="st6" d="M314.5,109c6.5,0,13.1,0,19.6,0c0.4,1.9,0.8,3.9,1.3,5.8c4.8,17.9,21.9,30.8,40.4,31.4   c13.8,0.4,24.6-5.3,34.2-14.3c2,0,3.9,0,5.9,0.1c5.5,0.4,11.1-1.1,16.5,1c-2.2,4.8-6.1,8.4-9.1,13.4c18.3,1.6,34.7,7.5,49,18.8   c-0.7,2.7-2.9,1.7-4.6,1.7c-7.8,0.1-15.7,0.1-23.5,0c-2,0-4.1-0.1-5,2.2c-5-0.4-9.7-4-14.9-1.2c-8.6-1.6-17.4-0.8-26.1-1   c-0.6-1.1-1.6-1-2.6-1c-12.2,0-24.4,0-36.6,0c-1,0-2-0.1-2.6,1c-8.7,0.2-17.4-0.6-26.1,1c-3.9-2.3-7.7-0.2-11.5,0.5   c-2.1,0.4-4.1,1.1-6.2,1.7c-1.9-1.2-4-1.2-6.2-1.2c-7.3,0-14.5,0.1-21.8,0c-1.6,0-3.8,0.8-4.3-2c13.2-11.4,28.7-17.5,45.8-20   c1.4-0.2,3.3,0.5,4-1.2c0.5-1.4-1-2.3-1.8-3.3C320.3,132.7,315.5,121.6,314.5,109z"/>
	<path class="st7" d="M92.5,331.9c-6.4,0-12.9,0.1-19.3,0.1c-0.3-0.9-0.8-1.9-0.8-2.8c-0.2-20.7-0.5-41.5,0.1-62.2   c4.7,0,9.5,0,14.2,0c2.1,0,3.9,0.2,4.8,2.4c0,4.2,0.2,8.3-0.1,12.5c-0.3,4.1,1.4,5.1,5.2,5c19.6-0.2,39.2,0,58.8-0.1   c13.2,0,21.2-6.9,23.3-19.8c6.5,0.4,13-1,19.4,1c0,19.6,0.1,39.1,0.1,58.7c0,1.8-0.6,3.6-1,5.3c-6.5-0.1-13-0.1-19.5-0.2   c1.3-10.1,0.5-20.2,0.7-31.1c-7.9,4.2-15.6,5.6-23.8,5.5c-19.3-0.2-38.7,0-58-0.2c-4.2,0-5.4,1.4-5.3,5.5   C91.3,318.3,91.6,325.1,92.5,331.9z"/>
	<path class="st8" d="M198,268c-6.4-2-13-0.6-19.4-1c-0.1-6.5-0.4-12.9-0.2-19.4c0.1-3.7-1-4.8-4.8-4.8c-17.4,0.2-34.9,0.1-52.3,0.1   c-2.3,0-4.6,0.2-6.9,0.8c-13,3.8-19.9,13-23,25.7c-0.9-2.2-2.8-2.5-4.8-2.4c-4.7,0.1-9.5,0-14.2,0c2.7-23.9,24.1-43.7,47.9-44   c22.5-0.2,44.9-0.1,67.4,0c6.4,0,10.4,3.6,10.4,9.5C198.2,244.4,198.1,256.2,198,268z"/>
	<path class="st9" d="M266.2,228c0,12.2,0.1,24.3-0.3,36.5c-0.2,4.8,1.6,5.7,5.9,5.7c20.8-0.2,41.6-0.1,62.5-0.1   c4.1,0,7.5,1.5,9.5,5.2c2,3.6,1.6,7-0.6,10.4c-2,3-5,4.3-8.5,4.3c-26,0-52,0.1-78,0c-6.2,0-10.5-3.8-10.5-9.7   c-0.1-16.5,0-33,0.1-49.5c0-0.9,0.5-1.9,0.7-2.8C253.5,228,259.8,228,266.2,228z"/>
	<path class="st9" d="M508.1,252c0,9.3,0.2,18.6,0.1,28c-0.1,5.7-4,9.9-9.8,9.9c-27.5,0.1-55,0.1-82.4,0c-5.7,0-9.8-4.6-9.8-9.9   c0-5.8,4.3-9.8,10.9-9.9c19.8-0.1,39.6,0,59.4,0c11.8,0,11.8,0,11.8-11.6c0-2.2,0.2-4.3,0.3-6.5C495.1,252,501.6,252,508.1,252z"/>
	<path class="st10" d="M398.1,167c8.7,0.2,17.4-0.6,26.1,1c-13.5,13.6-26.8,27.2-40.4,40.7c-3.7,3.6-9.5,3.6-13.2,0   c-13.6-13.5-26.9-27.1-40.4-40.7c8.6-1.6,17.4-0.8,26.1-1c6.1,5.9,12.2,11.8,18.1,17.8c2.1,2.2,3.4,2.2,5.6,0   C385.9,178.7,392,172.9,398.1,167z"/>
	<path class="st11" d="M260.1,135c-5.3,2-10.8,0.6-16.2,0.9c-2.8,0.2-5.6,0.1-7.8,2.2c-8.8-8.7-17.7-17.5-26.5-26.2   c-2.2-2.2-3.2-5.1-3.2-8.1c0-12.6,0.1-25.2,0.2-37.8c6.5,0,13,0,19.5,0c0,7.7,0.7,15.4,0,22.9c-0.8,8.6,2.1,14.6,8.5,20.3   C243.5,117.3,251.6,126.4,260.1,135z"/>
	<path class="st12" d="M305.7,447c-6.5,0-12.9,0-19.4,0c-0.1-10.1-0.2-20.3-0.1-30.4c0-3.1-0.9-5.3-3.1-7.4   c-9-8.8-17.9-17.8-26.8-26.8c-1.3-1.3-2.4-2.8-3.6-4.1c4.9-2.3,10.1-0.9,15.2-1.2c3.5-0.2,7-0.1,10.5-0.1   c8.3,8.2,16.5,16.3,24.8,24.5c1.9,1.9,2.8,4.2,2.8,6.8C305.9,421.1,305.8,434.1,305.7,447z"/>
	<path class="st10" d="M266.2,228c-6.4,0-12.8,0-19.1,0c1.2-18.5,8.8-34.4,20.3-48.6c3.7-4.6,7.7-9.1,12.8-12.3   c0.5,2.8,2.7,1.9,4.3,2c7.3,0.1,14.5,0.1,21.8,0c2.2,0,4.3,0,6.2,1.2c-7.6,4-15.3,7.7-21.9,13.6c-12.8,11.5-20.9,25.4-23.6,42.5   C266.9,226.8,266.5,227.4,266.2,228z"/>
	<path class="st13" d="M26.1,397.8c1.9,2.1,4.4,0.9,6.6,1.2c5.8,0.7,11.9-1.4,17.6,1.1c-1.2,1.4-2.3,2.9-3.6,4.1   c-12.3,11-18.7,25-22,40.9c-0.8,3.9,0.2,4.9,4,4.9c11.7-0.2,23.3,0,35-0.1c4.1,0,7.5,1.2,9.4,5.2c-22.9-2.1-45.8-0.5-68.8-1   C4.8,432.6,11.9,413.9,26.1,397.8z"/>
	<path class="st11" d="M23.7,132c-6.5,0-13,0-19.4,0c0-23,0-46,0-69c6.5,0,13,0,19.4,0C24.2,86,24.2,109,23.7,132z"/>
	<path class="st13" d="M508,452c-6.5,0-12.9,0-19.4,0c-0.5-23-0.5-46,0-69c6.5,0,12.9,0,19.4,0C508,406,508,429,508,452z"/>
	<path class="st13" d="M220.2,401c1.2-2.6,3.5-1.9,5.6-2.1c6.2-0.5,12.5,1.2,18.5-1c13.8,15.7,20.8,34.2,21.6,55.1   c-6.5,0.4-13-1-19.4,1c-0.8-11.6-3.8-22.5-9.5-32.7C232.6,413.4,226.3,407.3,220.2,401z"/>
	<path class="st10" d="M439.1,169.2c1-2.4,3-2.2,5-2.2c7.8,0,15.7,0.1,23.5,0c1.6,0,3.9,1,4.6-1.7c13.4,10.1,23.4,22.7,29.1,38.6   c-1.5,1.9-3.6,1-5.5,1.1c-4.8,0.3-9.8-0.7-14.5,1C472,188.3,457.7,176.3,439.1,169.2z"/>
	<path class="st8" d="M481.3,206c4.7-1.7,9.7-0.7,14.5-1c1.9-0.1,4,0.7,5.5-1.1c6.7,15.4,7.8,31.7,6.8,48.2c-6.5,0-12.9,0-19.4,0   c-0.2-7.4,0-14.9-0.6-22.3C487.4,221.4,484.3,213.7,481.3,206z"/>
	<path class="st11" d="M432.3,133c-5.4-2.1-11-0.6-16.5-1c-2-0.2-3.9-0.1-5.9-0.1c5.2-7,9.5-14.4,10.2-23.2   c0.6-6.9,0.7-13.8,0.9-20.7c6.3,0,12.7,0,19,0c0.4,12.7,0.6,25.4-4,37.6C435.1,128.2,434.2,130.9,432.3,133z"/>
	<path class="st9" d="M387.1,279.8c0.1,5.2-4.3,9.9-9.6,10.1c-5.1,0.2-10.1-4.4-10.3-9.5c-0.2-5.4,4.4-10.3,9.8-10.3   C382.4,270,387,274.5,387.1,279.8z"/>
	<path class="st12" d="M179.7,389.2c-2.7,4.5-7.4,7.1-10.9,10.8c-8.5,8.7-16.8,17.5-25.3,26.1c-5.6,5.7-10.9,5.7-16.5,0.1   c-11.2-11.2-22.4-22.4-33.5-33.6c-1-1-1.9-2.3-2.8-3.5c8.5-2.1,17.1-0.8,25.6-1.2c5.8,4.3,9.4,10.7,14.8,15.4c2.7,2.3,4.5,3,7.4,0   c4.9-5.4,10.4-10.3,15.6-15.4c3.2,1.7,6.4,0,9.6,0C169,388.1,174.4,387.7,179.7,389.2z"/>
	<path class="st0" d="M138.5,79c3.8-9.9,0.5-18.1-8.5-21c-8.9-2.9-17.6,3.4-18.7,13.8c-0.9,8.3-7.6,12.2-14.5,8.5   c-3.9-2-5.3-5.6-5.2-9.6c0.3-15.8,14.4-31.2,29.1-32.8c23-2.5,36.4,13.5,38.8,27.3c0.8,4.7,1.2,9.2-0.3,13.8   C152.2,79,145.3,79,138.5,79z"/>
	<path class="st11" d="M138.5,79c6.9,0,13.7,0,20.6,0c-3,10.5-8.4,19-18.8,23.5c-3.1,1.3-5,3-5.1,6.9c-0.1,4.5-4.7,7.7-9.5,7.7   c-4.7,0-8.7-3.4-9.4-8c-2-12.2,1.9-18.9,13.7-23.5C133.4,84.2,136.2,82,138.5,79z"/>
	<path class="st6" d="M125.7,155c-5.4,0-9.5-4.3-9.6-9.9c0-5.6,4.2-9.9,9.6-10c5.4,0,10.3,4.9,10.1,10.2   C135.6,150.6,131,155,125.7,155z"/>
	<path class="st13" d="M103.4,469.1c-5.5-0.2-9.5-4.7-9.2-10.2c0.3-5.4,4.7-9.3,10.4-9c5.2,0.2,9.4,4.6,9.4,9.7   C113.9,465.2,109.3,469.4,103.4,469.1z"/>
	<path class="st12" d="M444.2,397.4c0.1,2.9-1.3,5.2-3.4,7.3c-10.5,10.5-20.9,21-31.4,31.4c-5.5,5.4-10.5,5.3-16-0.2   c-5.8-5.7-11.6-11.5-17.3-17.3c-4.8-4.8-5.1-10.4-1-14.6c4-4.1,9.9-4,14.7,0.5c3,2.8,6,5.8,8.8,8.8c2.1,2.3,3.6,2.1,5.7,0   c7.7-7.9,15.5-15.6,23.3-23.3c3.2-3.1,7-3.9,11-2C442.4,389.8,444.4,392.9,444.2,397.4z"/>
</g>
</svg>